<?xml version="1.0" encoding="UTF-8"?>
<svg xmlns="http://www.w3.org/2000/svg" xmlns:xlink="http://www.w3.org/1999/xlink" width="446.31pt" height="52.07pt" viewBox="0 0 446.31 52.07" version="1.1">
<defs>
<clipPath id="clip1">
  <path d="M 17 33 L 46 33 L 46 52.070313 L 17 52.070313 Z M 17 33 "/>
</clipPath>
<clipPath id="clip2">
  <path d="M 431 9 L 446.308594 9 L 446.308594 40 L 431 40 Z M 431 9 "/>
</clipPath>
</defs>
<g id="surface1">
<path style=" stroke:none;fill-rule:nonzero;fill:rgb(7.099915%,10.598755%,27.799988%);fill-opacity:1;" d="M 45.125 13.023438 C 43.550781 12.824219 42.011719 12.527344 40.460938 12.125 C 33.183594 10.171875 26.964844 5.929688 22.566406 -0.00390625 L 17.421875 2.953125 C 19.699219 6.113281 22.410156 8.902344 25.535156 11.257813 C 29.539063 14.296875 34.023438 16.496094 38.917969 17.800781 C 40.976563 18.335938 43.035156 18.695313 45.125 18.917969 L 45.125 13.023438 "/>
<path style=" stroke:none;fill-rule:nonzero;fill:rgb(7.099915%,10.598755%,27.799988%);fill-opacity:1;" d="M 45.125 28.992188 L 45.125 23.09375 C 42.671875 22.855469 40.238281 22.449219 37.847656 21.808594 C 32.453125 20.351563 27.445313 17.929688 23.042969 14.566406 C 19.472656 11.882813 16.386719 8.683594 13.8125 5.046875 L 8.707031 7.988281 C 11.683594 12.320313 15.285156 16.09375 19.472656 19.269531 C 24.507813 23.074219 30.210938 25.828125 36.300781 27.503906 C 39.242188 28.273438 42.148438 28.753906 45.125 28.992188 "/>
<path style=" stroke:none;fill-rule:nonzero;fill:rgb(7.099915%,10.598755%,27.799988%);fill-opacity:1;" d="M 5.101563 10.0625 C 8.339844 14.878906 12.34375 19.070313 16.980469 22.5625 C 22.453125 26.714844 28.589844 29.707031 35.246094 31.492188 C 38.511719 32.351563 41.785156 32.902344 45.125 33.144531 L 45.125 39.039063 C 41.269531 38.804688 37.480469 38.160156 33.734375 37.152344 C 26.347656 35.183594 19.503906 31.835938 13.410156 27.246094 C 8.152344 23.257813 3.667969 18.480469 0 13.007813 L 5.101563 10.0625 "/>
<path style=" stroke:none;fill-rule:nonzero;fill:rgb(92.89856%,20.399475%,14.898682%);fill-opacity:1;" d="M 5.101563 41.996094 C 8.339844 37.1875 12.34375 32.996094 16.980469 29.488281 C 22.453125 25.367188 28.589844 22.359375 35.246094 20.578125 C 38.511719 19.710938 41.785156 19.160156 45.125 18.917969 L 45.125 13.019531 C 41.269531 13.28125 37.480469 13.902344 33.734375 14.914063 C 26.347656 16.902344 19.503906 20.226563 13.410156 24.816406 C 8.152344 28.804688 3.667969 33.585938 0 39.058594 L 5.101563 41.996094 "/>
<path style=" stroke:none;fill-rule:nonzero;fill:rgb(92.89856%,20.399475%,14.898682%);fill-opacity:1;" d="M 45.125 23.09375 L 45.125 28.992188 C 42.671875 29.207031 40.238281 29.617188 37.847656 30.261719 C 32.453125 31.710938 27.445313 34.136719 23.042969 37.5 C 19.472656 40.179688 16.386719 43.378906 13.8125 47.039063 L 8.707031 44.078125 C 11.683594 39.757813 15.285156 35.972656 19.472656 32.8125 C 24.507813 28.992188 30.210938 26.238281 36.300781 24.582031 C 39.242188 23.800781 42.148438 23.3125 45.125 23.09375 "/>
<g clip-path="url(#clip1)" clip-rule="nonzero">
<path style=" stroke:none;fill-rule:nonzero;fill:rgb(92.89856%,20.399475%,14.898682%);fill-opacity:1;" d="M 45.125 39.039063 C 43.550781 39.242188 42.011719 39.523438 40.460938 39.945313 C 33.183594 41.894531 26.964844 46.136719 22.566406 52.070313 L 17.421875 49.117188 C 19.699219 45.9375 22.410156 43.160156 25.535156 40.804688 C 29.539063 37.773438 34.023438 35.566406 38.917969 34.261719 C 40.976563 33.710938 43.035156 33.347656 45.125 33.144531 L 45.125 39.039063 "/>
</g>
<path style=" stroke:none;fill-rule:nonzero;fill:rgb(7.099915%,10.598755%,27.799988%);fill-opacity:1;" d="M 256.730469 26.25 L 255 26.25 L 255 36.558594 C 255.976563 36.972656 257.070313 37.164063 258.648438 37.164063 C 262.035156 37.164063 264.667969 35.804688 264.667969 32.042969 C 264.667969 28.019531 262.335938 26.25 256.730469 26.25 M 258.421875 14.738281 C 257.070313 14.738281 256.054688 14.925781 255 15.304688 L 255 24.519531 L 256.695313 24.519531 C 262.035156 24.519531 263.839844 22.863281 263.839844 19.476563 C 263.839844 16.320313 261.960938 14.738281 258.421875 14.738281 M 258.796875 39.378906 C 255.867188 39.378906 253.382813 38.855469 251.726563 37.953125 L 251.726563 14.175781 C 253.15625 13.347656 255.640625 12.746094 258.460938 12.746094 C 264.144531 12.746094 267.1875 15.453125 267.1875 19.214844 C 267.1875 22.902344 264.480469 24.78125 262.148438 25.234375 L 262.148438 25.3125 C 264.554688 25.761719 268.167969 28.058594 268.167969 32.007813 C 268.167969 37.199219 264.144531 39.378906 258.796875 39.378906 "/>
<path style=" stroke:none;fill-rule:nonzero;fill:rgb(7.099915%,10.598755%,27.799988%);fill-opacity:1;" d="M 283.316406 27.492188 C 278.203125 28.132813 275.15625 29.222656 275.15625 33.324219 C 275.15625 36.257813 276.957031 37.464844 279.96875 37.464844 C 281.246094 37.464844 282.488281 37.234375 283.316406 36.78125 Z M 279.707031 39.382813 C 274.4375 39.382813 271.992188 37.085938 271.992188 33.398438 C 271.992188 28.019531 277.03125 26.441406 283.316406 25.800781 L 283.316406 24.558594 C 283.316406 21.433594 281.4375 20.53125 278.839844 20.53125 C 276.882813 20.53125 275.078125 21.246094 273.953125 21.808594 L 273.160156 19.855469 C 274.324219 19.214844 276.582031 18.347656 279.363281 18.347656 C 283.128906 18.347656 286.4375 19.96875 286.4375 24.933594 L 286.4375 37.949219 C 284.894531 38.816406 282.527344 39.382813 279.707031 39.382813 "/>
<path style=" stroke:none;fill-rule:nonzero;fill:rgb(7.099915%,10.598755%,27.799988%);fill-opacity:1;" d="M 303.179688 39.003906 L 303.179688 24.445313 C 303.179688 22.566406 302.386719 20.492188 298.929688 20.492188 C 297.046875 20.492188 296.144531 20.757813 295.089844 21.207031 L 295.089844 39.003906 L 291.78125 39.003906 L 291.78125 19.777344 C 293.585938 18.914063 295.953125 18.351563 299.1875 18.351563 C 304.832031 18.351563 306.488281 21.472656 306.488281 24.367188 L 306.488281 39.003906 L 303.179688 39.003906 "/>
<path style=" stroke:none;fill-rule:nonzero;fill:rgb(7.099915%,10.598755%,27.799988%);fill-opacity:1;" d="M 323.078125 39.003906 L 315.328125 28.546875 L 315.253906 28.546875 L 315.253906 39.003906 L 312.019531 39.003906 L 312.019531 9.472656 L 315.253906 9.472656 L 315.253906 28.132813 L 315.328125 28.132813 L 322.550781 18.726563 L 326.011719 18.726563 L 318.335938 28.207031 L 326.839844 39.003906 L 323.078125 39.003906 "/>
<path style=" stroke:none;fill-rule:nonzero;fill:rgb(7.099915%,10.598755%,27.799988%);fill-opacity:1;" d="M 345.34375 26.25 L 343.613281 26.25 L 343.613281 36.558594 C 344.59375 36.972656 345.683594 37.164063 347.261719 37.164063 C 350.652344 37.164063 353.285156 35.804688 353.285156 32.042969 C 353.285156 28.019531 350.953125 26.25 345.34375 26.25 M 347.039063 14.738281 C 345.683594 14.738281 344.667969 14.925781 343.613281 15.304688 L 343.613281 24.519531 L 345.308594 24.519531 C 350.652344 24.519531 352.457031 22.863281 352.457031 19.476563 C 352.457031 16.320313 350.574219 14.738281 347.039063 14.738281 M 347.414063 39.378906 C 344.480469 39.378906 341.996094 38.855469 340.339844 37.953125 L 340.339844 14.175781 C 341.773438 13.347656 344.253906 12.746094 347.074219 12.746094 C 352.757813 12.746094 355.804688 15.453125 355.804688 19.214844 C 355.804688 22.902344 353.097656 24.78125 350.761719 25.234375 L 350.761719 25.3125 C 353.171875 25.761719 356.78125 28.058594 356.78125 32.007813 C 356.78125 37.199219 352.757813 39.378906 347.414063 39.378906 "/>
<path style=" stroke:none;fill-rule:nonzero;fill:rgb(7.099915%,10.598755%,27.799988%);fill-opacity:1;" d="M 368.515625 20.496094 C 365.582031 20.496094 363.398438 22.863281 363.476563 28.355469 L 373.183594 26.890625 C 373.183594 22.300781 371.414063 20.496094 368.515625 20.496094 M 363.589844 30.125 C 363.964844 34.714844 366.109375 36.972656 369.757813 36.972656 C 372.054688 36.972656 373.710938 36.40625 374.761719 35.804688 L 375.628906 37.988281 C 374.386719 38.742188 372.246094 39.378906 369.496094 39.378906 C 364.191406 39.378906 360.464844 36.035156 360.464844 28.808594 C 360.464844 21.925781 363.855469 18.351563 368.632813 18.351563 C 373.484375 18.351563 376.417969 21.511719 376.34375 28.28125 L 363.589844 30.125 "/>
<path style=" stroke:none;fill-rule:nonzero;fill:rgb(7.099915%,10.598755%,27.799988%);fill-opacity:1;" d="M 388.828125 20.90625 C 387.171875 20.417969 385.289063 20.570313 384.203125 21.285156 L 384.203125 39.003906 L 380.890625 39.003906 L 380.890625 19.820313 C 382.886719 18.800781 384.804688 18.273438 389.617188 18.386719 L 388.828125 20.90625 "/>
<path style=" stroke:none;fill-rule:nonzero;fill:rgb(7.099915%,10.598755%,27.799988%);fill-opacity:1;" d="M 404.402344 39.003906 L 404.402344 24.636719 C 404.402344 22.527344 403.503906 20.648438 400.265625 20.648438 C 398.761719 20.648438 397.558594 20.90625 396.316406 21.660156 L 396.316406 39.003906 L 393.003906 39.003906 L 393.003906 9.472656 L 396.316406 9.472656 L 396.316406 19.777344 C 398.007813 18.914063 399.476563 18.539063 400.980469 18.539063 C 406.132813 18.539063 407.714844 21.660156 407.714844 24.519531 L 407.714844 39.003906 L 404.402344 39.003906 "/>
<path style=" stroke:none;fill-rule:nonzero;fill:rgb(7.099915%,10.598755%,27.799988%);fill-opacity:1;" d="M 423.363281 27.492188 C 418.246094 28.132813 415.199219 29.222656 415.199219 33.324219 C 415.199219 36.257813 417.003906 37.464844 420.015625 37.464844 C 421.292969 37.464844 422.535156 37.234375 423.363281 36.78125 Z M 419.75 39.382813 C 414.480469 39.382813 412.039063 37.085938 412.039063 33.398438 C 412.039063 28.019531 417.082031 26.441406 423.363281 25.800781 L 423.363281 24.558594 C 423.363281 21.433594 421.480469 20.53125 418.886719 20.53125 C 416.929688 20.53125 415.125 21.246094 413.996094 21.808594 L 413.203125 19.855469 C 414.371094 19.214844 416.628906 18.347656 419.410156 18.347656 C 423.171875 18.347656 426.484375 19.96875 426.484375 24.933594 L 426.484375 37.949219 C 424.941406 38.816406 422.570313 39.382813 419.75 39.382813 "/>
<g clip-path="url(#clip2)" clip-rule="nonzero">
<path style=" stroke:none;fill-rule:nonzero;fill:rgb(7.099915%,10.598755%,27.799988%);fill-opacity:1;" d="M 443.035156 20.832031 C 442.207031 20.609375 441.378906 20.457031 440.511719 20.457031 C 435.8125 20.457031 434.304688 24.519531 434.304688 28.921875 C 434.304688 33.699219 435.964844 37.199219 440.101563 37.199219 C 441.453125 37.199219 442.394531 37.050781 443.035156 36.632813 Z M 439.949219 39.378906 C 434.15625 39.378906 431.035156 35.316406 431.035156 29.1875 C 431.035156 22.453125 434.609375 18.539063 439.835938 18.539063 C 440.964844 18.539063 441.945313 18.691406 443.035156 18.992188 L 443.035156 9.472656 L 446.308594 9.472656 L 446.308594 37.953125 C 444.953125 38.78125 442.773438 39.378906 439.949219 39.378906 "/>
</g>
<path style=" stroke:none;fill-rule:nonzero;fill:rgb(7.099915%,10.598755%,27.799988%);fill-opacity:1;" d="M 160.605469 26.972656 C 160.710938 23.554688 162.144531 21.84375 164.316406 21.84375 C 166.488281 21.84375 167.660156 23.402344 167.695313 26.972656 Z M 164.570313 18.390625 C 158.726563 18.390625 155.421875 22.488281 155.421875 28.84375 C 155.421875 35.324219 158.988281 39.429688 165.199219 39.429688 C 168.617188 39.429688 170.890625 38.746094 172.476563 37.957031 L 171.144531 34.320313 C 170.046875 34.875 168.238281 35.40625 165.890625 35.40625 C 162.886719 35.40625 161.519531 34.042969 160.972656 30.960938 C 160.902344 30.609375 160.863281 30.21875 160.824219 29.835938 L 173.132813 29.835938 L 173.132813 29.230469 C 173.394531 22.375 170.414063 18.390625 164.570313 18.390625 "/>
<path style=" stroke:none;fill-rule:nonzero;fill:rgb(7.099915%,10.598755%,27.799988%);fill-opacity:1;" d="M 69.535156 39.039063 L 69.535156 27.816406 L 62.980469 27.816406 L 62.980469 39.039063 L 56.855469 39.039063 L 56.855469 13.128906 L 62.980469 13.128906 L 62.980469 23.824219 L 69.535156 23.824219 L 69.535156 13.128906 L 75.667969 13.128906 L 75.667969 39.039063 L 69.535156 39.039063 "/>
<path style=" stroke:none;fill-rule:nonzero;fill:rgb(7.099915%,10.598755%,27.799988%);fill-opacity:1;" d="M 87.101563 22.023438 C 84.488281 22.023438 83.933594 25.1875 83.933594 28.804688 C 83.933594 32.445313 84.519531 35.417969 87.101563 35.417969 C 89.675781 35.417969 90.226563 32.445313 90.226563 28.804688 C 90.226563 25.1875 89.675781 22.023438 87.101563 22.023438 M 87.101563 39.429688 C 81.222656 39.429688 78.136719 34.945313 78.136719 28.878906 C 78.136719 22.816406 81.222656 18.371094 87.027344 18.371094 C 92.949219 18.371094 96.03125 22.816406 96.03125 28.878906 C 96.03125 34.945313 92.949219 39.429688 87.101563 39.429688 "/>
<path style=" stroke:none;fill-rule:nonzero;fill:rgb(7.099915%,10.598755%,27.799988%);fill-opacity:1;" d="M 109.628906 39.039063 L 109.628906 24.855469 C 109.628906 23.421875 108.996094 22.023438 106.617188 22.023438 C 105.476563 22.023438 104.8125 22.210938 104.148438 22.433594 L 104.148438 39.039063 L 98.273438 39.039063 L 98.273438 19.878906 C 100.296875 18.976563 103.160156 18.371094 106.757813 18.371094 C 113.230469 18.371094 115.507813 21.101563 115.507813 24.800781 L 115.507813 39.039063 L 109.628906 39.039063 "/>
<path style=" stroke:none;fill-rule:nonzero;fill:rgb(7.099915%,10.598755%,27.799988%);fill-opacity:1;" d="M 129.65625 22.101563 C 129.179688 21.882813 128.589844 21.75 127.785156 21.75 C 124.765625 21.75 123.519531 24.214844 123.519531 29.0625 C 123.519531 33.660156 124.730469 35.847656 127.671875 35.847656 C 128.484375 35.847656 129.140625 35.660156 129.65625 35.347656 Z M 126.464844 47.589844 C 123.34375 47.589844 120.539063 46.980469 118.890625 46.082031 L 120.394531 42.273438 C 121.648438 42.957031 123.476563 43.492188 125.4375 43.492188 C 128.515625 43.492188 129.65625 42.019531 129.65625 39.6875 L 129.65625 38.546875 C 128.960938 38.933594 127.785156 39.191406 126.09375 39.191406 C 121.242188 39.191406 117.75 35.457031 117.75 29.398438 C 117.75 22.632813 121.203125 18.367188 128.191406 18.367188 C 131.273438 18.367188 133.917969 19.015625 135.351563 19.878906 L 135.351563 39.191406 C 135.351563 44.960938 131.671875 47.589844 126.464844 47.589844 "/>
<path style=" stroke:none;fill-rule:nonzero;fill:rgb(7.099915%,10.598755%,27.799988%);fill-opacity:1;" d="M 140.867188 39.039063 L 140.867188 13.128906 L 146.964844 13.128906 L 146.964844 34.949219 L 153.550781 34.949219 L 153.550781 39.039063 L 140.867188 39.039063 "/>
<path style=" stroke:none;fill-rule:nonzero;fill:rgb(7.099915%,10.598755%,27.799988%);fill-opacity:1;" d="M 184.375 22.023438 C 181.808594 22.023438 181.25 25.1875 181.25 28.804688 C 181.25 32.445313 181.847656 35.417969 184.375 35.417969 C 186.996094 35.417969 187.496094 32.445313 187.496094 28.804688 C 187.496094 25.1875 186.996094 22.023438 184.375 22.023438 M 184.375 39.429688 C 178.503906 39.429688 175.414063 34.945313 175.414063 28.878906 C 175.414063 22.816406 178.503906 18.371094 184.34375 18.371094 C 190.265625 18.371094 193.347656 22.816406 193.347656 28.878906 C 193.347656 34.945313 190.265625 39.429688 184.375 39.429688 "/>
<path style=" stroke:none;fill-rule:nonzero;fill:rgb(7.099915%,10.598755%,27.799988%);fill-opacity:1;" d="M 207.714844 39.039063 L 207.714844 24.855469 C 207.714844 23.421875 207.054688 22.023438 204.703125 22.023438 C 203.527344 22.023438 202.871094 22.210938 202.199219 22.433594 L 202.199219 39.039063 L 196.328125 39.039063 L 196.328125 19.878906 C 198.351563 18.976563 201.214844 18.371094 204.855469 18.371094 C 211.285156 18.371094 213.5625 21.101563 213.5625 24.800781 L 213.5625 39.039063 L 207.714844 39.039063 "/>
<path style=" stroke:none;fill-rule:nonzero;fill:rgb(7.099915%,10.598755%,27.799988%);fill-opacity:1;" d="M 227.707031 22.101563 C 227.234375 21.882813 226.652344 21.75 225.839844 21.75 C 222.820313 21.75 221.609375 24.214844 221.609375 29.0625 C 221.609375 33.660156 222.789063 35.847656 225.726563 35.847656 C 226.539063 35.847656 227.199219 35.660156 227.707031 35.347656 Z M 224.550781 47.589844 C 221.386719 47.589844 218.59375 46.980469 216.984375 46.082031 L 218.488281 42.273438 C 219.699219 42.957031 221.574219 43.492188 223.484375 43.492188 C 226.582031 43.492188 227.707031 42.019531 227.707031 39.6875 L 227.707031 38.546875 C 227.019531 38.933594 225.839844 39.191406 224.140625 39.191406 C 219.300781 39.191406 215.808594 35.457031 215.808594 29.398438 C 215.808594 22.632813 219.253906 18.367188 226.234375 18.367188 C 229.363281 18.367188 231.972656 19.015625 233.414063 19.878906 L 233.414063 39.191406 C 233.414063 44.960938 229.734375 47.589844 224.550781 47.589844 "/>
</g>
</svg>
